<mxfile host="app.diagrams.net" agent="Mozilla/5.0 (Windows NT 10.0; Win64; x64) AppleWebKit/537.36 (KHTML, like Gecko) Chrome/137.0.0.0 Safari/537.36 Edg/137.0.0.0" version="27.1.6">
  <diagram name="Página-1" id="zBo6vXtQqi8v7wBej2-3">
    <mxGraphModel dx="117" dy="923" grid="1" gridSize="10" guides="1" tooltips="1" connect="1" arrows="1" fold="1" page="1" pageScale="1" pageWidth="827" pageHeight="1169" math="0" shadow="0">
      <root>
        <mxCell id="0" />
        <mxCell id="1" parent="0" />
        <mxCell id="aQPQJHo4U79rL5RtIUnN-4" style="edgeStyle=orthogonalEdgeStyle;rounded=0;orthogonalLoop=1;jettySize=auto;html=1;exitX=0.5;exitY=1;exitDx=0;exitDy=0;entryX=0.5;entryY=0;entryDx=0;entryDy=0;" edge="1" parent="1" source="aQPQJHo4U79rL5RtIUnN-2" target="aQPQJHo4U79rL5RtIUnN-8">
          <mxGeometry relative="1" as="geometry">
            <mxPoint x="185" y="150" as="targetPoint" />
            <Array as="points">
              <mxPoint x="180" y="120" />
              <mxPoint x="190" y="120" />
            </Array>
          </mxGeometry>
        </mxCell>
        <mxCell id="aQPQJHo4U79rL5RtIUnN-2" value="Licença" style="ellipse;whiteSpace=wrap;html=1;align=center;fontStyle=4;" vertex="1" parent="1">
          <mxGeometry x="130" y="40" width="100" height="40" as="geometry" />
        </mxCell>
        <mxCell id="aQPQJHo4U79rL5RtIUnN-9" style="edgeStyle=orthogonalEdgeStyle;rounded=0;orthogonalLoop=1;jettySize=auto;html=1;exitX=1;exitY=0.5;exitDx=0;exitDy=0;entryX=0;entryY=0.5;entryDx=0;entryDy=0;" edge="1" parent="1" source="aQPQJHo4U79rL5RtIUnN-3" target="aQPQJHo4U79rL5RtIUnN-8">
          <mxGeometry relative="1" as="geometry">
            <Array as="points">
              <mxPoint x="120" y="130" />
              <mxPoint x="120" y="180" />
            </Array>
          </mxGeometry>
        </mxCell>
        <mxCell id="aQPQJHo4U79rL5RtIUnN-3" value="CPF" style="ellipse;whiteSpace=wrap;html=1;align=center;fontStyle=4;" vertex="1" parent="1">
          <mxGeometry x="10" y="110" width="100" height="40" as="geometry" />
        </mxCell>
        <mxCell id="aQPQJHo4U79rL5RtIUnN-6" value="Nome" style="ellipse;whiteSpace=wrap;html=1;align=center;" vertex="1" parent="1">
          <mxGeometry x="280" y="80" width="100" height="40" as="geometry" />
        </mxCell>
        <mxCell id="aQPQJHo4U79rL5RtIUnN-11" style="edgeStyle=orthogonalEdgeStyle;rounded=0;orthogonalLoop=1;jettySize=auto;html=1;exitX=0;exitY=0.5;exitDx=0;exitDy=0;entryX=1;entryY=0.5;entryDx=0;entryDy=0;" edge="1" parent="1" source="aQPQJHo4U79rL5RtIUnN-7" target="aQPQJHo4U79rL5RtIUnN-8">
          <mxGeometry relative="1" as="geometry" />
        </mxCell>
        <mxCell id="aQPQJHo4U79rL5RtIUnN-7" value="Endereço" style="ellipse;whiteSpace=wrap;html=1;align=center;" vertex="1" parent="1">
          <mxGeometry x="290" y="150" width="100" height="40" as="geometry" />
        </mxCell>
        <mxCell id="aQPQJHo4U79rL5RtIUnN-20" style="edgeStyle=orthogonalEdgeStyle;rounded=0;orthogonalLoop=1;jettySize=auto;html=1;entryX=0;entryY=0;entryDx=0;entryDy=0;" edge="1" parent="1" source="aQPQJHo4U79rL5RtIUnN-8" target="aQPQJHo4U79rL5RtIUnN-13">
          <mxGeometry relative="1" as="geometry">
            <Array as="points">
              <mxPoint x="190" y="250" />
              <mxPoint x="412" y="250" />
            </Array>
          </mxGeometry>
        </mxCell>
        <mxCell id="aQPQJHo4U79rL5RtIUnN-8" value="Pessoa" style="whiteSpace=wrap;html=1;align=center;" vertex="1" parent="1">
          <mxGeometry x="140" y="160" width="100" height="40" as="geometry" />
        </mxCell>
        <mxCell id="aQPQJHo4U79rL5RtIUnN-10" style="edgeStyle=orthogonalEdgeStyle;rounded=0;orthogonalLoop=1;jettySize=auto;html=1;exitX=0;exitY=0.5;exitDx=0;exitDy=0;entryX=0.94;entryY=-0.025;entryDx=0;entryDy=0;entryPerimeter=0;" edge="1" parent="1" source="aQPQJHo4U79rL5RtIUnN-6" target="aQPQJHo4U79rL5RtIUnN-8">
          <mxGeometry relative="1" as="geometry" />
        </mxCell>
        <mxCell id="aQPQJHo4U79rL5RtIUnN-13" value="u" style="ellipse;whiteSpace=wrap;html=1;aspect=fixed;" vertex="1" parent="1">
          <mxGeometry x="400" y="330" width="80" height="80" as="geometry" />
        </mxCell>
        <mxCell id="aQPQJHo4U79rL5RtIUnN-19" style="edgeStyle=orthogonalEdgeStyle;rounded=0;orthogonalLoop=1;jettySize=auto;html=1;entryX=1;entryY=0;entryDx=0;entryDy=0;" edge="1" parent="1" source="aQPQJHo4U79rL5RtIUnN-14" target="aQPQJHo4U79rL5RtIUnN-13">
          <mxGeometry relative="1" as="geometry" />
        </mxCell>
        <mxCell id="aQPQJHo4U79rL5RtIUnN-14" value="Banco" style="whiteSpace=wrap;html=1;align=center;" vertex="1" parent="1">
          <mxGeometry x="590" y="190" width="100" height="40" as="geometry" />
        </mxCell>
        <mxCell id="aQPQJHo4U79rL5RtIUnN-16" style="edgeStyle=orthogonalEdgeStyle;rounded=0;orthogonalLoop=1;jettySize=auto;html=1;entryX=1;entryY=0.5;entryDx=0;entryDy=0;" edge="1" parent="1" source="aQPQJHo4U79rL5RtIUnN-15" target="aQPQJHo4U79rL5RtIUnN-13">
          <mxGeometry relative="1" as="geometry" />
        </mxCell>
        <mxCell id="aQPQJHo4U79rL5RtIUnN-15" value="Company" style="whiteSpace=wrap;html=1;align=center;" vertex="1" parent="1">
          <mxGeometry x="500" y="565" width="100" height="40" as="geometry" />
        </mxCell>
        <mxCell id="aQPQJHo4U79rL5RtIUnN-18" style="edgeStyle=orthogonalEdgeStyle;rounded=0;orthogonalLoop=1;jettySize=auto;html=1;entryX=0;entryY=0.5;entryDx=0;entryDy=0;" edge="1" parent="1" source="aQPQJHo4U79rL5RtIUnN-17" target="aQPQJHo4U79rL5RtIUnN-13">
          <mxGeometry relative="1" as="geometry" />
        </mxCell>
        <mxCell id="aQPQJHo4U79rL5RtIUnN-17" value="Owner" style="whiteSpace=wrap;html=1;align=center;" vertex="1" parent="1">
          <mxGeometry x="180" y="560" width="100" height="40" as="geometry" />
        </mxCell>
        <mxCell id="aQPQJHo4U79rL5RtIUnN-25" style="edgeStyle=orthogonalEdgeStyle;rounded=0;orthogonalLoop=1;jettySize=auto;html=1;exitX=0.5;exitY=1;exitDx=0;exitDy=0;entryX=1;entryY=0.25;entryDx=0;entryDy=0;" edge="1" parent="1" source="aQPQJHo4U79rL5RtIUnN-21" target="aQPQJHo4U79rL5RtIUnN-14">
          <mxGeometry relative="1" as="geometry" />
        </mxCell>
        <mxCell id="aQPQJHo4U79rL5RtIUnN-21" value="Bendereço" style="ellipse;whiteSpace=wrap;html=1;align=center;" vertex="1" parent="1">
          <mxGeometry x="680" y="90" width="100" height="40" as="geometry" />
        </mxCell>
        <mxCell id="aQPQJHo4U79rL5RtIUnN-22" value="Bnome" style="ellipse;whiteSpace=wrap;html=1;align=center;fontStyle=4;" vertex="1" parent="1">
          <mxGeometry x="500" y="90" width="100" height="40" as="geometry" />
        </mxCell>
        <mxCell id="aQPQJHo4U79rL5RtIUnN-24" style="edgeStyle=orthogonalEdgeStyle;rounded=0;orthogonalLoop=1;jettySize=auto;html=1;exitX=0.5;exitY=1;exitDx=0;exitDy=0;entryX=0.367;entryY=-0.033;entryDx=0;entryDy=0;entryPerimeter=0;" edge="1" parent="1" source="aQPQJHo4U79rL5RtIUnN-22" target="aQPQJHo4U79rL5RtIUnN-14">
          <mxGeometry relative="1" as="geometry" />
        </mxCell>
        <mxCell id="aQPQJHo4U79rL5RtIUnN-29" style="edgeStyle=orthogonalEdgeStyle;rounded=0;orthogonalLoop=1;jettySize=auto;html=1;entryX=1;entryY=0.5;entryDx=0;entryDy=0;" edge="1" parent="1" source="aQPQJHo4U79rL5RtIUnN-26" target="aQPQJHo4U79rL5RtIUnN-15">
          <mxGeometry relative="1" as="geometry">
            <Array as="points">
              <mxPoint x="660" y="538" />
              <mxPoint x="650" y="538" />
              <mxPoint x="650" y="585" />
            </Array>
          </mxGeometry>
        </mxCell>
        <mxCell id="aQPQJHo4U79rL5RtIUnN-26" value="Cnome" style="ellipse;whiteSpace=wrap;html=1;align=center;fontStyle=4;" vertex="1" parent="1">
          <mxGeometry x="610" y="470" width="100" height="40" as="geometry" />
        </mxCell>
        <mxCell id="aQPQJHo4U79rL5RtIUnN-28" style="edgeStyle=orthogonalEdgeStyle;rounded=0;orthogonalLoop=1;jettySize=auto;html=1;entryX=0.5;entryY=1;entryDx=0;entryDy=0;" edge="1" parent="1" source="aQPQJHo4U79rL5RtIUnN-27" target="aQPQJHo4U79rL5RtIUnN-15">
          <mxGeometry relative="1" as="geometry" />
        </mxCell>
        <mxCell id="aQPQJHo4U79rL5RtIUnN-27" value="Cendereço" style="ellipse;whiteSpace=wrap;html=1;align=center;" vertex="1" parent="1">
          <mxGeometry x="630" y="660" width="100" height="40" as="geometry" />
        </mxCell>
      </root>
    </mxGraphModel>
  </diagram>
</mxfile>
